<svg id="Capa_1" enable-background="new 0 0 512 512" height="512" viewBox="0 0 512 512" width="512" xmlns="http://www.w3.org/2000/svg"><g><g><path clip-rule="evenodd" d="m124.206 30.822v33.202l21.346 8.49 21.346-8.49v-33.202c0-3.355-2.745-6.098-6.074-6.098h-30.515c-3.358 0-6.103 2.743-6.103 6.098z" fill="#7e707d" fill-rule="evenodd"/></g><g><path clip-rule="evenodd" d="m124.206 64.024h42.692v66.579h-42.692z" fill="#fe8d94" fill-rule="evenodd"/></g><g><path clip-rule="evenodd" d="m236.076 29.655v34.369l21.346 8.49 21.346-8.49v-34.369c0-2.713-2.219-4.931-4.935-4.931h-32.822c-2.715 0-4.935 2.218-4.935 4.931z" fill="#7e707d" fill-rule="evenodd"/></g><g><path clip-rule="evenodd" d="m236.076 64.024h42.692v66.579h-42.692z" fill="#fe8d94" fill-rule="evenodd"/></g><g><path clip-rule="evenodd" d="m95.092 125.322v45.777l117.64 24.08 152.794-24.08-38.429-43.238c-1.81-2.071-4.439-7.557-13.141-7.557-72.361 0-144.284 0-213.841 0-2.774 0-5.023 2.246-5.023 5.018z" fill="#eff6ff" fill-rule="evenodd"/></g><g><path clip-rule="evenodd" d="m16.19 386.911c8.498 6.156 38.431 48.732 15.827 45.922 55.376 6.882 158.666 34.891 215.929 19.924 56.388-14.734 125.15-17.849 177.238-30.602-14.453 3.539 2.541-27.659 15.097-41.021l-216.47-10.784-215.213 10.785c2.073 1.808 4.555 3.559 7.592 5.776z" fill="#7e707d" fill-rule="evenodd"/></g><g><path clip-rule="evenodd" d="m38.208 176.175v116.499l255.804 16.805c10.337 0 10.805-1.78 20.12-6.389l143.554-71.276-49.146-53.742c-4.643-5.077-5.636-6.973-10.804-6.973h-32.209-270.435-51.803c-2.774 0-5.081 2.275-5.081 5.076z" fill="#ffbc85" fill-rule="evenodd"/></g><g><path clip-rule="evenodd" d="m22.469 292.674c-22.543 0-23.04 15.463-22.281 22.115v21.502l240.546 17.576 240.546-17.576c17.054-30.022 24.704-67.717 24.12-94.413-.204-9.278.672-10.066-6.424-10.066h-41.291-93.678c-8.673 0-13.345 1.546-18.572 8.928l-32.151 45.514c-5.986 8.49-9.782 6.389-20.12 6.389l-254.957.029h-15.738z" fill="#eff6ff" fill-rule="evenodd"/></g><g><path clip-rule="evenodd" d="m285.076 127.86 38.429 43.238h42.021l-38.429-43.238c-1.81-2.071-4.439-7.557-13.141-7.557h-35.188-6.833c2.891 0 5.11.613 6.833 1.488 3.505 1.781 5.082 4.698 6.308 6.069z" fill="#d9eeff" fill-rule="evenodd"/></g><g><path clip-rule="evenodd" d="m.188 336.291v24.974c1.08 11.028 3.387 15.492 8.41 19.869h431.684c3.329-3.53 7.388-7.119 12.294-10.824 11.535-8.665 21.054-20.569 28.705-34.019z" fill="#fe8d94" fill-rule="evenodd"/></g><g><path clip-rule="evenodd" d="m422.819 336.291c-13.987 24.624-28.384 35.507-40.999 44.843h58.461c3.329-3.53 7.388-7.119 12.294-10.824 11.535-8.665 21.054-20.569 28.705-34.019z" fill="#ff6d75" fill-rule="evenodd"/></g><g><path clip-rule="evenodd" d="m350.049 178.072 49.175 53.742h41.262.175 17.024l-49.146-53.742c-4.643-5.077-5.636-6.973-10.804-6.973h-32.209-26.281c5.198 0 6.161 1.896 10.804 6.973z" fill="#f5a96c" fill-rule="evenodd"/></g><g><path clip-rule="evenodd" d="m446.939 241.879c.584 26.696-7.067 64.391-24.12 94.413h58.461c17.054-30.022 24.704-67.717 24.12-94.413-.204-9.278.672-10.066-6.424-10.066h-41.291-16.937c5.431.029 6.016.584 6.103 5.368.03 1.255.03 2.802.088 4.698z" fill="#d9eeff" fill-rule="evenodd"/></g><g><path clip-rule="evenodd" d="m368.037 406.984c-.73 3.676-1.11 7.411-1.256 11.262 20.529.117 40.327 1.459 58.403 3.91.088-14.88 2.541-27.659 15.097-41.021h-48.153-10.308-373.222c2.073 1.809 4.555 3.559 7.592 5.777 3.884 2.801 7.125 7.877 9.666 14.734h320.018c10.074-.001 23.769-2.656 22.163 5.338z" fill="#6a5c6b" fill-rule="evenodd"/></g><g><path clip-rule="evenodd" d="m244.808 209.698v44.347h36.998c2.745 0 4.993-2.276 4.993-5.018v-34.311c0-2.743-2.249-5.018-4.993-5.018z" fill="#eff6ff" fill-rule="evenodd"/></g><g><path clip-rule="evenodd" d="m32.017 432.834c-19.623 3.122-32.005 10.532-32.005 25.704v28.738h511.988v-21.094c0-21.736-36.589-37.199-86.816-44.026-53.03-7.206-121.215-4.814-177.603 9.92-57.263 14.966-162.709-7.674-215.564.758z" fill="#a0ddfa" fill-rule="evenodd"/></g><g><path clip-rule="evenodd" d="m412.657 451.769c6.483 6.856 10.074 14.559 10.074 23.049v12.458h89.269v-21.094c0-21.736-36.589-37.199-86.816-44.026-18.076-2.451-37.874-3.793-58.403-3.91-11.593-.058-23.419.263-35.275.992 1.489.233 2.949.467 4.409.729 34.488 5.835 62.55 16.747 76.742 31.802z" fill="#75cef9" fill-rule="evenodd"/></g><g><path clip-rule="evenodd" d="m160.825 209.698h41.992v44.347h-41.992z" fill="#eff6ff" fill-rule="evenodd"/></g><g><path clip-rule="evenodd" d="m202.816 209.698h41.992v44.347h-41.992z" fill="#eff6ff" fill-rule="evenodd"/></g><g><path clip-rule="evenodd" d="m76.871 214.716v34.311c0 2.772 2.249 5.018 4.993 5.018h36.969v-44.347h-36.969c-2.745 0-4.993 2.276-4.993 5.018z" fill="#eff6ff" fill-rule="evenodd"/></g><g><path clip-rule="evenodd" d="m118.833 209.698h41.992v44.347h-41.992z" fill="#eff6ff" fill-rule="evenodd"/></g><path d="m281.806 201.972h-199.942c-7.013 0-12.719 5.717-12.719 12.744v34.311c0 7.027 5.706 12.744 12.719 12.744h199.942c7.013 0 12.719-5.717 12.719-12.744v-34.311c0-7.027-5.706-12.744-12.719-12.744zm-113.255 15.453h26.538v28.894h-26.538zm-15.452 28.894h-26.539v-28.894h26.539zm57.443-28.894h26.539v28.894h-26.539zm-125.944 0h26.509v28.894h-26.509zm194.474 28.894h-26.538v-28.894h26.538z" fill="#75cef9"/><g><path d="m431.813 211.239h-85.355c-4.268 0-7.726-3.459-7.726-7.726s3.459-7.726 7.726-7.726h85.355c4.268 0 7.726 3.459 7.726 7.726s-3.459 7.726-7.726 7.726z" fill="#75cef9"/></g><g><path d="m385.821 308.195c-5.975 0-11.95-2.273-16.499-6.817-4.412-4.408-6.842-10.272-6.842-16.509 0-6.236 2.43-12.1 6.841-16.508 9.1-9.091 23.901-9.089 32.999-.001l.001.001c4.411 4.408 6.841 10.272 6.841 16.508 0 6.237-2.43 12.101-6.842 16.509-4.548 4.545-10.524 6.817-16.499 6.817zm0-31.207c-2.02 0-4.04.768-5.577 2.304-1.49 1.489-2.311 3.471-2.311 5.577 0 2.108.821 4.089 2.311 5.577 3.074 3.072 8.078 3.072 11.155 0 1.49-1.489 2.311-3.47 2.311-5.577s-.82-4.088-2.311-5.577c-1.538-1.536-3.558-2.304-5.578-2.304z" fill="#fe8d94"/></g><g><path d="m442.14 308.358c-.009 0-.018 0-.028 0-6.232-.008-12.082-2.44-16.473-6.847-4.399-4.395-6.83-10.259-6.83-16.496 0-6.236 2.43-12.1 6.843-16.509 4.377-4.394 10.227-6.826 16.46-6.834h.028c6.236 0 12.098 2.427 16.509 6.834 4.413 4.409 6.843 10.273 6.843 16.509 0 6.237-2.431 12.101-6.843 16.509-4.411 4.408-10.274 6.834-16.509 6.834zm0-31.233c-.004 0-.007 0-.01 0-2.1.003-4.068.819-5.543 2.3-1.504 1.503-2.325 3.484-2.325 5.591 0 2.108.821 4.088 2.312 5.577 1.488 1.494 3.457 2.31 5.556 2.313h.01c2.111 0 4.095-.821 5.588-2.313 1.491-1.49 2.312-3.47 2.312-5.577s-.821-4.088-2.312-5.577c-1.494-1.493-3.478-2.314-5.588-2.314z" fill="#fe8d94"/></g></g></svg>